<svg xmlns="http://www.w3.org/2000/svg" viewBox="0 0 100 100" fill="none">
  <defs>
    <linearGradient id="grad" x1="0%" y1="0%" x2="100%" y2="100%">
      <stop offset="0%" style="stop-color:#6366f1"/>
      <stop offset="100%" style="stop-color:#a855f7"/>
    </linearGradient>
  </defs>
  <rect width="100" height="100" rx="20" fill="url(#grad)"/>
  <path d="M50 20C35.088 20 23 32.088 23 47c0 9.243 4.64 17.39 11.714 22.286V75c0 2.762 2.238 5 5 5h20.572c2.762 0 5-2.238 5-5v-5.714C72.36 64.39 77 56.243 77 47c0-14.912-12.088-27-27-27zm0 10c2.762 0 5 2.238 5 5s-2.238 5-5 5-5-2.238-5-5 2.238-5 5-5zm5 35h-10v-3h10v3zm6.5-15h-23c-1.38 0-2.5-1.12-2.5-2.5s1.12-2.5 2.5-2.5h23c1.38 0 2.5 1.12 2.5 2.5s-1.12 2.5-2.5 2.5z" fill="white"/>
</svg>

